PathFileType	4	(X/Y/Z)	/Users/niels/Desktop/University/Third Semester/Perception and Action/Exam/Gymnastics Motion Tracking/Code for Gym Tracking/Analyzed Data/Webcam_Backflip/id2_1_baseline_Sports2D/id2_1_baseline_Sports2D_px_person00.trc
DataRate	CameraRate	NumFrames	NumMarkers	Units	OrigDataRate	OrigDataStartFrame	OrigNumFrames
29.872881355932204	29.872881355932204	11	22	m	29.872881355932204	29	236
Frame#	Time	Hip			RHip			RKnee			RAnkle			RBigToe			RSmallToe			RHeel			LHip			LKnee			LAnkle			LBigToe			LSmallToe			LHeel			Neck			Head			Nose			RShoulder			RElbow			RWrist			LShoulder			LElbow			LWrist		
		X1	Y1	Z1	X2	Y2	Z2	X3	Y3	Z3	X4	Y4	Z4	X5	Y5	Z5	X6	Y6	Z6	X7	Y7	Z7	X8	Y8	Z8	X9	Y9	Z9	X10	Y10	Z10	X11	Y11	Z11	X12	Y12	Z12	X13	Y13	Z13	X14	Y14	Z14	X15	Y15	Z15	X16	Y16	Z16	X17	Y17	Z17	X18	Y18	Z18	X19	Y19	Z19	X20	Y20	Z20	X21	Y21	Z21	X22	Y22	Z22
29	0.9707801418439715	0.8865226672784221	-0.40895501461438977	0.0	0.8916400518482195	-0.4090770805727884	0.0	0.9846244985504461	-0.3773089723826498	0.0	0.9837843772463855	-0.4921260494607785	0.0	1.0171479446868217	-0.5140252120193094	0.0	1.015215413880776	-0.5180873791737652	0.0	0.9763715074439916	-0.5070236959020147	0.0	0.8812870348828555	-0.4075452664282821	0.0	0.9753803573283318	-0.3756350478624417	0.0	0.9811921376999978	-0.48474764246878516	0.0	1.0125562285553673	-0.5024163367515722	0.0	1.0075182047614701	-0.5038875392632187	0.0	0.9685561147036833	-0.5032325691809388	0.0	0.7869749475619258	-0.3077679286541331	0.0	0.7141796188064495	-0.2780454156149096	0.0	0.7537653224036778	-0.2675876066450142	0.0	0.8051002970518437	-0.29877062420481365	0.0	0.8711047807439793	-0.2649882539327031	0.0	0.9054669464749974	-0.20697395694442725	0.0	0.7921575244454815	-0.31103336366270395	0.0	0.8589986254249228	-0.28089066170097965	0.0	0.8930519489333344	-0.22610779069569142	0.0
30	1.004255319148936	0.8879327512755625	-0.38885194473536544	0.0	0.8931016521143144	-0.38912263615146414	0.0	0.9649527805785008	-0.3238238968986531	0.0	0.9916188094307045	-0.4266225552867383	0.0	1.027077561444751	-0.43171838862477796	0.0	1.0269147416517312	-0.4379989935587028	0.0	0.9885325869159106	-0.4425302809899943	0.0	0.883466721026433	-0.38696225951542385	0.0	0.9577117763917932	-0.32359518663072057	0.0	0.9894545967589383	-0.41966653599559994	0.0	1.0207368322775723	-0.4216209338884867	0.0	1.0190866811198431	-0.42393220799010395	0.0	0.982938041394988	-0.43901990571134336	0.0	0.7766699195093103	-0.3016854074236558	0.0	0.7047542375230291	-0.282139922510626	0.0	0.7416650114913345	-0.26711947392579743	0.0	0.7968667349593449	-0.2912748448515841	0.0	0.8691296479330095	-0.26213625893797504	0.0	0.9095929623750778	-0.20579015524813443	0.0	0.7851948956213414	-0.30592522787193266	0.0	0.8548474014275214	-0.2800586732610756	0.0	0.8934295276497325	-0.2274816285183147	0.0
31	1.0377304964539005	0.8924408987656108	-0.36943329155312393	0.0	0.8976784807210765	-0.36914290715925996	0.0	0.9377863326604942	-0.27993290284411854	0.0	0.9937638538805835	-0.36377086024065375	0.0	1.02750867811147	-0.35148137936844703	0.0	1.0293606891524616	-0.3594107000782209	0.0	0.995317482085564	-0.38022316755431756	0.0	0.8886230802069333	-0.3671220853680145	0.0	0.9324055891120977	-0.28095147193178704	0.0	0.9921923651909794	-0.3578505807788995	0.0	1.0217135901387802	-0.3442067789989503	0.0	1.022416479701696	-0.34592404587212994	0.0	0.9925170399107104	-0.37721110356835624	0.0	0.7698640828941822	-0.30248716087376976	0.0	0.7000896527292018	-0.29391416810588805	0.0	0.7342506445703539	-0.2744718346925351	0.0	0.7909218097857899	-0.29019191983755477	0.0	0.8674072368970767	-0.26178904668514497	0.0	0.9109436987675428	-0.20641895959165646	0.0	0.7812804399979385	-0.3062765272199075	0.0	0.8517018066655142	-0.2788112387649468	0.0	0.8926151740067504	-0.22663737888970406	0.0
32	1.071205673758865	0.8988163948950209	-0.3490190901722233	0.0	0.9038977012114756	-0.34727508431501286	0.0	0.9061663157023632	-0.24710879086577664	0.0	0.987867718997999	-0.30541604077552287	0.0	1.015222321480932	-0.2784106647261798	0.0	1.019265984217925	-0.2869050508681558	0.0	0.9934542979493856	-0.3212714769621339	0.0	0.8956692863032891	-0.34653879648194913	0.0	0.902477191170944	-0.24944215108117415	0.0	0.9869514087800585	-0.30136194373132796	0.0	1.0121355667459768	-0.27642039285273157	0.0	1.0138031890708652	-0.27532049435238515	0.0	0.9934065444109986	-0.3192263777997362	0.0	0.7677718332776045	-0.3095140477264547	0.0	0.7017465591904655	-0.3127882372385825	0.0	0.7322638733589207	-0.28928132321757577	0.0	0.7880779339730318	-0.29479565120469886	0.0	0.8653062873203149	-0.2627142072385899	0.0	0.9067150871016494	-0.2072107139176495	0.0	0.7809555509524662	-0.31159793012068066	0.0	0.8492950929399482	-0.2770765837029849	0.0	0.8886398169185151	-0.22349295187809093	0.0
33	1.1046808510638297	0.905160735336251	-0.3268731860874059	0.0	0.909574328064421	-0.3230667458152828	0.0	0.8733065880543764	-0.22573722467075344	0.0	0.9723602024951813	-0.2540088259305232	0.0	0.9890994580394088	-0.21704527420240743	0.0	0.9953663894506082	-0.22493997914705194	0.0	0.980943097287614	-0.2677783912815765	0.0	0.9029318802451489	-0.3242663760980182	0.0	0.8712496169606352	-0.22985640109590974	0.0	0.97218609437382	-0.25235232958003107	0.0	0.9899804953975694	-0.22308910156835848	0.0	0.9911534238681698	-0.21676060440823622	0.0	0.982996741998697	-0.2669091566656052	0.0	0.7715812381927684	-0.32136841844538755	0.0	0.711416320637098	-0.33739438610546824	0.0	0.7365639704738868	-0.310622756483804	0.0	0.7891608734595551	-0.3039062957213629	0.0	0.8624976483545871	-0.26398658189041724	0.0	0.8956760948589113	-0.2073548901989694	0.0	0.785039723702126	-0.32094531958304046	0.0	0.847780654613934	-0.2756784116493795	0.0	0.8809136857379132	-0.21968379542011532	0.0
34	1.1381560283687941	0.9094553350727593	-0.3036390875179956	0.0	0.9125803840056025	-0.2978342655668157	0.0	0.8421671593739953	-0.2156825264500292	0.0	0.9468466192107963	-0.2121154368249022	0.0	0.9503934606109818	-0.17049824710229408	0.0	0.9585878416213776	-0.17689391654466888	0.0	0.9573879683232575	-0.22233009442530233	0.0	0.908487052386874	-0.30043768158211215	0.0	0.8418863055014407	-0.2219016925112644	0.0	0.9477095828293819	-0.21261508764319717	0.0	0.955648566527328	-0.18623759321259914	0.0	0.9551159272706071	-0.17303789574006834	0.0	0.9606903307653702	-0.22215408905229836	0.0	0.7820510902498888	-0.33603448058180646	0.0	0.7304035118068775	-0.3653951511647306	0.0	0.7481095255981195	-0.33675448780312467	0.0	0.7948867172540575	-0.31592563181872546	0.0	0.8587770786875567	-0.2651056014320645	0.0	0.8783132506750458	-0.2071983760097176	0.0	0.7943565570638821	-0.33263097413371645	0.0	0.8474198738932871	-0.2748162087935734	0.0	0.8706305534044616	-0.2170518290800952	0.0
35	1.1716312056737588	0.9101224656378692	-0.2811201129457699	0.0	0.9115092263538725	-0.27407207339686585	0.0	0.8151142349183434	-0.21603939723344237	0.0	0.912374055978218	-0.18178308767639131	0.0	0.9024940553544737	-0.14036893122820604	0.0	0.9118129021703285	-0.14477260737937092	0.0	0.9238654600958863	-0.18733643223329638	0.0	0.9105040732447629	-0.27664755571943084	0.0	0.816813060650148	-0.22409022496568606	0.0	0.9147104055149606	-0.18354648308103066	0.0	0.9116745719101761	-0.16510169013681678	0.0	0.9090172973221505	-0.14547829447626814	0.0	0.9277255042090863	-0.1868274827849697	0.0	0.7990401939315149	-0.3511586666072289	0.0	0.7589008763512237	-0.39343545941273633	0.0	0.7674948806436378	-0.3647221440432556	0.0	0.8055560271898015	-0.32897371295909367	0.0	0.8541191858028254	-0.2663018037394601	0.0	0.8566214825110375	-0.20832877012159665	0.0	0.8092119947015957	-0.34459417454458136	0.0	0.8482740782321034	-0.2744510280878897	0.0	0.8602984884331691	-0.21741927991150262	0.0
36	1.2051063829787232	0.9064281419767451	-0.26142336096753055	0.0	0.9059510904784684	-0.2543223465106642	0.0	0.7935536845629964	-0.2250098682774766	0.0	0.8715146370857435	-0.16429009197903824	0.0	0.850029298165599	-0.12728232330983785	0.0	0.8593015727639833	-0.1295404341119723	0.0	0.8826976956688972	-0.1646059635957571	0.0	0.9077973279810484	-0.25554422632486234	0.0	0.7973257997697413	-0.23407727507785075	0.0	0.8755584642676574	-0.1664940053477637	0.0	0.8616267969799104	-0.15746534070445994	0.0	0.8576807554710423	-0.13468567460940198	0.0	0.8866488745191015	-0.16291746604804663	0.0	0.8212909556648814	-0.364437288546241	0.0	0.795366981060368	-0.41763593035746116	0.0	0.7942622905435829	-0.3905398405565203	0.0	0.8207520838563412	-0.34113571017820943	0.0	0.848944459709663	-0.2685716154063259	0.0	0.8336354828790699	-0.21319852575222567	0.0	0.8289087237203746	-0.3549981266299068	0.0	0.8503412303846759	-0.2751292403734519	0.0	0.8524938998657879	-0.22254254094700873	0.0
37	1.2385815602836878	0.8985225560263606	-0.24612245831411111	0.0	0.8963695514490052	-0.24029319983008363	0.0	0.7778605127654848	-0.240442471059368	0.0	0.8279201910420413	-0.1601695921406091	0.0	0.7974983348819398	-0.13131579546299588	0.0	0.8055778936546311	-0.1314307345716891	0.0	0.8371293340641227	-0.15519841135198303	0.0	0.9002719531503032	-0.2396922906899332	0.0	0.7836729797041366	-0.24927704279693347	0.0	0.8333431622814078	-0.16269434573398958	0.0	0.8092671356657648	-0.16162556213382048	0.0	0.8058934142889653	-0.14053859445504904	0.0	0.8408906555108749	-0.15243743658108488	0.0	0.846612649835609	-0.37407607654742275	0.0	0.8365787863150638	-0.4347831941582587	0.0	0.8264809451202312	-0.4105242446469384	0.0	0.8392971989882616	-0.3509040828828273	0.0	0.8442186912140208	-0.2732533401104678	0.0	0.8127329602244627	-0.22428294782653416	0.0	0.8516387850474608	-0.3624743101902759	0.0	0.8537433816254508	-0.27778252480186905	0.0	0.8483285641045699	-0.23352321163790074	0.0
38	1.2720567375886522	0.8871570710048986	-0.236117827597342	0.0	0.8837931791811771	-0.23267583681519546	0.0	0.7676664611206288	-0.2606338617735177	0.0	0.7851836404106073	-0.1696443068982794	0.0	0.7483931342886846	-0.15225361248111488	0.0	0.7544249227663604	-0.1502259639079259	0.0	0.7906655609952573	-0.15978809689730428	0.0	0.8888014863042429	-0.23059719860193303	0.0	0.7752005213339748	-0.2676136334225026	0.0	0.7911139104278602	-0.17274379454816594	0.0	0.7582662591887973	-0.1777569006251169	0.0	0.7574018260010369	-0.1621064109983288	0.0	0.7941291210666408	-0.15692451579849123	0.0	0.8724323090646374	-0.37913152557356616	0.0	0.8785534062312436	-0.44345981059901574	0.0	0.8610401273727974	-0.4227997895279925	0.0	0.8596345860857532	-0.3575838976563402	0.0	0.8411916473844722	-0.28142684651544	0.0	0.796886931714315	-0.24307615555879625	0.0	0.8749659696433831	-0.3661931938716177	0.0	0.8583977252830431	-0.28306682041273357	0.0	0.8467173491126941	-0.25043719442023926	0.0
39	1.3055319148936169	0.8733215404634463	-0.2320247980999225	0.0	0.8694384412488331	-0.23151902447993625	0.0	0.7622115380037457	-0.28487421997431867	0.0	0.7458488591037133	-0.19312837825157986	0.0	0.7054123318907571	-0.18973127121500327	0.0	0.7088643724475686	-0.185532064843221	0.0	0.746347184724943	-0.17917054472045063	0.0	0.874633009228972	-0.22856570682178076	0.0	0.7704901211078751	-0.2882312290583082	0.0	0.751267944961045	-0.1963845630803291	0.0	0.7122110925124332	-0.20749176820001736	0.0	0.7148063420767033	-0.19812559887983283	0.0	0.7494407398864174	-0.17694254610361806	0.0	0.8963929723200917	-0.3796354912692151	0.0	0.9176793642948309	-0.4442304930914915	0.0	0.8945362403600975	-0.4275522639024913	0.0	0.8802732200823088	-0.36131199128732017	0.0	0.8408732023095039	-0.29351500627255317	0.0	0.7880885981914505	-0.26964418799068696	0.0	0.8965486265959076	-0.3660557588057731	0.0	0.863436480201295	-0.29129986706341665	0.0	0.8452797098774726	-0.2728281607146284	0.0
